inDegrees=no
num_controls=7
num_derivatives=13
num_iterations=167
num_multipliers=7
num_parameters=0
num_slacks=7
num_states=26
objective=5.259567
objective_accelerations=0.589566
objective_balance=0.054631
objective_effort=0.552586
objective_height=4.014578
objective_ligament=0.048206
solver_duration=1735.606433
status=Solve_Succeeded
success=true
DataType=double
version=3
OpenSimVersion=4.4-2022-07-23-0e9fedc
endheader
time	/jointset/ground_pelvis/pelvis_tilt/value	/jointset/ground_pelvis/pelvis_tx/value	/jointset/ground_pelvis/pelvis_ty/value	/jointset/hip_l/hip_flexion_l/value	/jointset/hip_l/hip_adduction_l/value	/jointset/hip_l/hip_rotation_l/value	/jointset/back/lumbar_extension/value	/jointset/patellofemoral_l/patellar_flexion_l/value	/jointset/knee_l/knee_flexion_l/value	/jointset/knee_l/knee_adduction_l/value	/jointset/knee_l/knee_rotation_l/value	/jointset/ankle_l/ankle_angle_l/value	/jointset/subtalar_l/subtalar_angle_l/value	/jointset/ground_pelvis/pelvis_tilt/speed	/jointset/ground_pelvis/pelvis_tx/speed	/jointset/ground_pelvis/pelvis_ty/speed	/jointset/hip_l/hip_flexion_l/speed	/jointset/hip_l/hip_adduction_l/speed	/jointset/hip_l/hip_rotation_l/speed	/jointset/back/lumbar_extension/speed	/jointset/patellofemoral_l/patellar_flexion_l/speed	/jointset/knee_l/knee_flexion_l/speed	/jointset/knee_l/knee_adduction_l/speed	/jointset/knee_l/knee_rotation_l/speed	/jointset/ankle_l/ankle_angle_l/speed	/jointset/subtalar_l/subtalar_angle_l/speed	/forceset/tau_hip_flexion_l	/forceset/tau_hip_adduction_l	/forceset/tau_hip_rotation_l	/forceset/tau_knee_flexion_l	/forceset/tau_ankle_angle_l	/forceset/tau_subtalar_angle_l	/forceset/tau_lumbar_extension	lambda_cid13_p0	lambda_cid13_p1	lambda_cid13_p2	lambda_cid13_p3	lambda_cid13_p4	lambda_cid13_p5	lambda_cid14_p0	/jointset/ground_pelvis/pelvis_tilt/accel	/jointset/ground_pelvis/pelvis_tx/accel	/jointset/ground_pelvis/pelvis_ty/accel	/jointset/hip_l/hip_flexion_l/accel	/jointset/hip_l/hip_adduction_l/accel	/jointset/hip_l/hip_rotation_l/accel	/jointset/back/lumbar_extension/accel	/jointset/patellofemoral_l/patellar_flexion_l/accel	/jointset/knee_l/knee_flexion_l/accel	/jointset/knee_l/knee_adduction_l/accel	/jointset/knee_l/knee_rotation_l/accel	/jointset/ankle_l/ankle_angle_l/accel	/jointset/subtalar_l/subtalar_angle_l/accel	gamma_cid13_p0	gamma_cid13_p1	gamma_cid13_p2	gamma_cid13_p3	gamma_cid13_p4	gamma_cid13_p5	gamma_cid14_p0
0.5	-0.08802467665917277	-0.03036351637428867	0.7765925825963674	1.018233518419653	-0.3199227721455343	-0.06629630096344874	-0.7990252818886949	1.082685690939951	1.082685690940163	-0.03841477825751673	-0.1745316465496647	0.2342587939880367	0.05847819258522856	-0.09038632638576238	-0.1099396574739451	-0.549426184695987	1.826451302719488	-0.01931073156581498	0.5237123888538692	-0.8256175168653439	2.206017087251244	2.206017087251235	0.3313946787655166	-2.024343260436144e-05	0.62501590147632	0.2319082577698186	-0.2706929558506835	0.01926441228305118	-0.008724947810552408	-0.280831175393602	0.05150428085584433	0.0467124074358674	0.3290221219580295	-26.26266224054119	-16.48527034026464	3.083660095116682	-9.524693364316908	-695.5382817558174	-75.71122033003675	-3.675534434260542	0.4348010044078409	0.7438253030901927	-0.3348013000152841	-1.647235507875465	0.156863394792163	-0.7423981690911245	2.05623479382369	-1.73829951626174	-1.738299516261739	-0.221163321072616	0.0358266217392378	-0.6502917662873859	0.1526711824805913	-2.074688488234313e-07	-1.542067524341122e-06	3.710266699930505e-07	-1.667722482886999e-07	-2.354188606483993e-07	-6.784610379612169e-07	-2.132072329351503e-07
0.51	-0.08890661771039547	-0.03142577172175428	0.7710828782980319	1.036413011865843	-0.3201089398974179	-0.06109746228446516	-0.8071778966629456	1.104655592155523	1.104655592155639	-0.03511285139589761	-0.1745316944762726	0.2404751197105103	0.06080326226180428	-0.08598192091053523	-0.1025162560266655	-0.5523839737110903	1.80919720447417	-0.01793966682098813	0.516015432864613	-0.8048286740337801	2.187655755232036	2.187655755232034	0.3289646650946297	4.599191320130993e-06	0.61815645199021	0.2330469492731657	-0.2771282500149406	0.01944756322482384	-0.008724062482741039	-0.2863574685699667	0.04937696227645451	0.04652361741482707	0.3357111393786752	-27.2934630398946	-16.09314279854044	2.873052448254158	-9.134449906964907	-701.4099909897405	-75.67047604101732	-3.05086501427729	0.4462393990508483	0.7408416078178928	-0.2567094270346716	-1.802041006531962	0.124730359748506	-0.7895482918205809	2.10172362044144	-1.931118074574546	-1.931118074573415	-0.2580400657488378	-0.01503007005395159	-0.7177559308925375	0.08583006608176696	-1.95460950944931e-07	-1.357672118335198e-06	4.509917290568714e-07	-1.440258170919067e-07	-2.224074320384119e-07	-5.9762692654248e-07	-2.010814135821115e-07
0.52	-0.08974391889087073	-0.03241394424629277	0.7655475077645899	1.054412455524847	-0.320281896532769	-0.0559768339609719	-0.8151203200903568	1.126432666444936	1.126432666444959	-0.03183604860611014	-0.174531662607197	0.2466200540598988	0.06313799123977742	-0.08145835223648276	-0.09512309288852273	-0.5545594317172615	1.790441345281973	-0.01666850825933687	0.5080703177562469	-0.7835792474974707	2.16745170201986	2.167451702019865	0.3263698643976561	-4.284295674531953e-06	0.6107376268593104	0.2338401180493122	-0.2835635441792005	0.01963071416659065	-0.008723177154840025	-0.2918837617463297	0.0472496436970626	0.04633482739377654	0.3424001567993189	-28.32396191138897	-15.70695155023065	2.670111465336492	-8.805252627463819	-707.2895490952538	-75.67380869144918	-2.483909227307082	0.4586336441728933	0.7377776412628186	-0.178335098228857	-1.947587697251361	0.1368821581570607	-0.7920299929131474	2.148351534772815	-2.106843754855491	-2.106843754855498	-0.2541207262899046	0.02908139955541629	-0.7621668952453338	0.08356663704048857	-1.746901145612616e-07	-1.234333446754348e-06	4.073199624861791e-07	-1.384551377631405e-07	-1.978363063159611e-07	-5.447852452467473e-07	-1.824074465702819e-07
0.53	-0.09053545966446086	-0.03332843099729657	0.7599942937461299	1.072217104507081	-0.3204425189436121	-0.05093670642334834	-0.8228481058884716	1.147998743179377	1.147998743179371	-0.02858586840630999	-0.1745316430537269	0.2526881287219225	0.06547907387574381	-0.07683402018065141	-0.08778820788117503	-0.5559516857800447	1.770254141809301	-0.0154709216103289	0.4999194726129411	-0.7619205296544549	2.14547368641738	2.145473686417385	0.3236422295147804	4.189207907387311e-06	0.6027915806316089	0.2343189284949782	-0.2897683417449645	0.01993340079890119	-0.008747195199952455	-0.2973726172160669	0.04488862605872847	0.04593438563228512	0.3488000953842553	-29.44098314139678	-15.20046488527539	2.432885356832154	-8.266971356033535	-713.0511955253287	-75.46441374634941	-1.974761028116575	0.4666868580860723	0.7292242393038936	-0.09995461715321019	-2.089447244242341	0.1089731107483009	-0.8321487153539566	2.183239279688421	-2.286739710824662	-2.286739710824836	-0.2858545255377764	-0.01382029020482241	-0.823736497631517	0.02155775127535235	-1.551101065303409e-07	-1.11353559593318e-06	3.708062102307079e-07	-1.319537292567058e-07	-1.757238466480104e-07	-4.927454525435122e-07	-1.647190486694958e-07
